<svg width="24" height="28" viewBox="0 0 24 28" fill="none" xmlns="http://www.w3.org/2000/svg">
<path fill-rule="evenodd" clip-rule="evenodd" d="M21.12 0H2.88V1.93103H1.92H0V28H2.28571V25.1034H5.14286V22.2069H7.42857V19.3103H9.71428V16.4138H14.2857V19.3103H16.5714V22.2069H18.8571V25.1034H21.7143V28H24V1.93103H22.08H21.12V0ZM3.84 2.89655H19.2001H20.1601V4.82759H22.0801L22.0801 13.5172V16.4138V19.3104V22.2069H19.2001V19.3104H17.2801V16.4138H15.3601L15.3601 14.4828L15.3601 13.5172L17.2801 13.5172L1.92 13.5172V4.82759H3.84V2.89655ZM4.8 19.3104V22.2069H1.92V19.3104V16.4138V13.5172H8.64V16.4138H6.72V19.3104H4.8Z" fill="#366C94"/>
</svg>
