<svg width="24" height="28" viewBox="0 0 24 28" fill="none" xmlns="http://www.w3.org/2000/svg">
<path fill-rule="evenodd" clip-rule="evenodd" d="M21.12 0H2.87999V1.93099H1.92001H0V28H2.28571V25.1034H5.14286V22.2069H7.42857V19.3103H9.71428V16.4138H14.2857V19.3103H16.5714V22.2069H18.8571V25.1034H21.7143V28H24V1.93099H22.08H21.12V0Z" fill="white"/>
<path fill-rule="evenodd" clip-rule="evenodd" d="M1.9201 2.89648H22.0801V13.5172H22.0801V16.4137H15.3601V13.5172H8.64004V16.4137H1.92004V13.5172H1.9201V2.89648ZM1.92004 19.3103H4.80004V22.2068H1.92004V19.3103ZM19.2001 19.3103H22.0801V22.2068H19.2001V19.3103ZM1.92004 16.4137H6.72004V19.3103H1.92004V16.4137ZM17.2801 16.4137H22.0801V19.3103H17.2801V16.4137Z" fill="#3AD900"/>
<rect x="4.50464" y="5.90723" width="1.77231" height="3.47586" fill="white"/>
<rect x="19.2" y="2.89648" width="2.88" height="19.3103" fill="#47A425"/>
<rect x="17.28" y="14.4824" width="1.92" height="4.82759" fill="#47A425"/>
<rect x="15.36" y="14.4824" width="1.92" height="1.93103" fill="#47A425"/>
<rect x="17.28" y="12.5518" width="1.92" height="1.93103" fill="#47A425"/>
<rect x="6.27686" y="5.90723" width="1.77231" height="1.73793" fill="white"/>
<rect x="1.92004" y="2.89648" width="1.92" height="1.93103" fill="white"/>
<rect x="20.16" y="2.89648" width="1.92" height="1.93103" fill="white"/>
</svg>
