<svg width="14" height="17" viewBox="0 0 14 17" fill="none" xmlns="http://www.w3.org/2000/svg">
<path fill-rule="evenodd" clip-rule="evenodd" d="M12.32 0H1.68V1.1724H1.12004H0V17H1.33333V15.2414H3V13.4827H4.33333V11.7241H5.66667V9.9655H8.33333V11.7241H9.66667V13.4827H11V15.2414H12.6667V17H14V1.1724H12.88H12.32V0Z" fill="white"/>
<path fill-rule="evenodd" clip-rule="evenodd" d="M1.11993 1.75879H12.8799V8.20706H12.8799V9.96567H8.95992V8.20706H5.03987V9.96567H1.11987V8.20705H1.11993V1.75879ZM2.79987 11.7243V13.4829H1.11987V11.7243V9.96569H3.91987V11.7243L2.79987 11.7243ZM11.1999 13.4829V11.7243L10.0799 11.7243V9.96569H12.8799V11.7243V13.4829H11.1999Z" fill="#3AD900"/>
<rect x="2.62769" y="3.58594" width="1.03385" height="2.11035" fill="white"/>
<rect x="11.2" y="1.75879" width="1.68" height="11.7241" fill="#47A425"/>
<rect x="10.0801" y="8.79297" width="1.12" height="2.93104" fill="#47A425"/>
<rect x="8.95996" y="8.79297" width="1.12" height="1.17241" fill="#47A425"/>
<rect x="10.0801" y="7.62109" width="1.12" height="1.17242" fill="#47A425"/>
<rect x="3.66138" y="3.58594" width="1.03385" height="1.05517" fill="white"/>
<rect x="1.11987" y="1.75879" width="1.12" height="1.17241" fill="white"/>
<rect x="11.76" y="1.75879" width="1.12" height="1.17241" fill="white"/>
</svg>
