<svg width="14" height="17" viewBox="0 0 14 17" fill="none" xmlns="http://www.w3.org/2000/svg">
<path fill-rule="evenodd" clip-rule="evenodd" d="M12.32 0H1.67999V1.17241H1.11998H0V17H1.33333V15.2414H3V13.4828H4.33333V11.7241H5.66667V9.96552H8.33333V11.7241H9.66667V13.4828H11V15.2414H12.6667V17H14V1.17241H12.88L12.32 1.17241V0ZM2.23998 1.75862H11.2H11.76V2.93104H12.88V1.75862H12.88V13.4828L11.2 13.4828V11.7241H11.2H10.08H10.08V9.96553H8.96004V9.96552H8.96003V8.7931H8.96004V8.20691H10.08V8.2069H1.11998V2.93104H2.23998V1.75862ZM11.2 8.20691H11.2V8.2069H11.2V8.20691ZM2.79998 11.7241V13.4828H1.11998V11.7241V9.96553V9.96552V8.20691H5.03998V9.96553H3.91998V11.7241H2.79998Z" fill="#366C94"/>
</svg>
