<svg width="24" height="24" viewBox="0 0 24 24" fill="none" xmlns="http://www.w3.org/2000/svg">
<path d="M8.68952 17.5234C8.68952 17.6016 8.59677 17.6641 8.47984 17.6641C8.34677 17.6758 8.25403 17.6133 8.25403 17.5234C8.25403 17.4453 8.34677 17.3828 8.46371 17.3828C8.58468 17.3711 8.68952 17.4336 8.68952 17.5234ZM7.43548 17.3477C7.40726 17.4258 7.4879 17.5156 7.60887 17.5391C7.71371 17.5781 7.83468 17.5391 7.85887 17.4609C7.88306 17.3828 7.80645 17.293 7.68548 17.2578C7.58065 17.2305 7.46371 17.2695 7.43548 17.3477ZM9.21774 17.2813C9.10081 17.3086 9.02016 17.3828 9.03226 17.4727C9.04435 17.5508 9.14919 17.6016 9.27016 17.5742C9.3871 17.5469 9.46774 17.4727 9.45564 17.3945C9.44355 17.3203 9.33468 17.2695 9.21774 17.2813ZM11.871 2.3125C6.27823 2.3125 2 6.42578 2 11.8438C2 16.1758 4.81452 19.8828 8.83468 21.1875C9.35081 21.2773 9.53226 20.9688 9.53226 20.7148C9.53226 20.4727 9.52016 19.1367 9.52016 18.3164C9.52016 18.3164 6.69758 18.9023 6.10484 17.1523C6.10484 17.1523 5.64516 16.0156 4.98387 15.7227C4.98387 15.7227 4.06048 15.1094 5.04839 15.1211C5.04839 15.1211 6.05242 15.1992 6.60484 16.1289C7.4879 17.6367 8.96774 17.2031 9.54435 16.9453C9.6371 16.3203 9.89919 15.8867 10.1895 15.6289C7.93548 15.3867 5.66129 15.0703 5.66129 11.3125C5.66129 10.2383 5.96774 9.69922 6.6129 9.01172C6.50806 8.75781 6.16532 7.71094 6.71774 6.35938C7.56048 6.10547 9.5 7.41406 9.5 7.41406C10.3065 7.19531 11.1734 7.08203 12.0323 7.08203C12.8911 7.08203 13.7581 7.19531 14.5645 7.41406C14.5645 7.41406 16.504 6.10156 17.3468 6.35938C17.8992 7.71484 17.5565 8.75781 17.4516 9.01172C18.0968 9.70313 18.4919 10.2422 18.4919 11.3125C18.4919 15.082 16.1169 15.3828 13.8629 15.6289C14.2339 15.9375 14.5484 16.5234 14.5484 17.4414C14.5484 18.7578 14.5363 20.3867 14.5363 20.707C14.5363 20.9609 14.7218 21.2695 15.2339 21.1797C19.2661 19.8828 22 16.1758 22 11.8438C22 6.42578 17.4637 2.3125 11.871 2.3125ZM5.91935 15.7852C5.86694 15.8242 5.87903 15.9141 5.94758 15.9883C6.0121 16.0508 6.10484 16.0781 6.15726 16.0273C6.20968 15.9883 6.19758 15.8984 6.12903 15.8242C6.06452 15.7617 5.97177 15.7344 5.91935 15.7852ZM5.48387 15.4688C5.45565 15.5195 5.49597 15.582 5.57661 15.6211C5.64113 15.6602 5.72177 15.6484 5.75 15.5938C5.77823 15.543 5.7379 15.4805 5.65726 15.4414C5.57661 15.418 5.5121 15.4297 5.48387 15.4688ZM6.79032 16.8594C6.72581 16.9102 6.75 17.0273 6.84274 17.1016C6.93548 17.1914 7.05242 17.2031 7.10484 17.1406C7.15726 17.0898 7.13306 16.9727 7.05242 16.8984C6.96371 16.8086 6.84274 16.7969 6.79032 16.8594ZM6.33065 16.2852C6.26613 16.3242 6.26613 16.4258 6.33065 16.5156C6.39516 16.6055 6.50403 16.6445 6.55645 16.6055C6.62097 16.5547 6.62097 16.4531 6.55645 16.3633C6.5 16.2734 6.39516 16.2344 6.33065 16.2852Z" fill="#122738"/>
</svg>
