<svg width="25" height="24" viewBox="0 0 25 24" fill="none" xmlns="http://www.w3.org/2000/svg">
<g filter="url(#filter0_d)">
<path d="M9.68952 17.5234C9.68952 17.6016 9.59677 17.6641 9.47984 17.6641C9.34677 17.6758 9.25403 17.6133 9.25403 17.5234C9.25403 17.4453 9.34677 17.3828 9.46371 17.3828C9.58468 17.3711 9.68952 17.4336 9.68952 17.5234ZM8.43548 17.3477C8.40726 17.4258 8.4879 17.5156 8.60887 17.5391C8.71371 17.5781 8.83468 17.5391 8.85887 17.4609C8.88306 17.3828 8.80645 17.293 8.68548 17.2578C8.58065 17.2305 8.46371 17.2695 8.43548 17.3477ZM10.2177 17.2813C10.1008 17.3086 10.0202 17.3828 10.0323 17.4727C10.0444 17.5508 10.1492 17.6016 10.2702 17.5742C10.3871 17.5469 10.4677 17.4727 10.4556 17.3945C10.4435 17.3203 10.3347 17.2695 10.2177 17.2813ZM12.871 2.3125C7.27823 2.3125 3 6.42578 3 11.8438C3 16.1758 5.81452 19.8828 9.83468 21.1875C10.3508 21.2773 10.5323 20.9688 10.5323 20.7148C10.5323 20.4727 10.5202 19.1367 10.5202 18.3164C10.5202 18.3164 7.69758 18.9023 7.10484 17.1523C7.10484 17.1523 6.64516 16.0156 5.98387 15.7227C5.98387 15.7227 5.06048 15.1094 6.04839 15.1211C6.04839 15.1211 7.05242 15.1992 7.60484 16.1289C8.4879 17.6367 9.96774 17.2031 10.5444 16.9453C10.6371 16.3203 10.8992 15.8867 11.1895 15.6289C8.93548 15.3867 6.66129 15.0703 6.66129 11.3125C6.66129 10.2383 6.96774 9.69922 7.6129 9.01172C7.50806 8.75781 7.16532 7.71094 7.71774 6.35938C8.56048 6.10547 10.5 7.41406 10.5 7.41406C11.3065 7.19531 12.1734 7.08203 13.0323 7.08203C13.8911 7.08203 14.7581 7.19531 15.5645 7.41406C15.5645 7.41406 17.504 6.10156 18.3468 6.35938C18.8992 7.71484 18.5565 8.75781 18.4516 9.01172C19.0968 9.70313 19.4919 10.2422 19.4919 11.3125C19.4919 15.082 17.1169 15.3828 14.8629 15.6289C15.2339 15.9375 15.5484 16.5234 15.5484 17.4414C15.5484 18.7578 15.5363 20.3867 15.5363 20.707C15.5363 20.9609 15.7218 21.2695 16.2339 21.1797C20.2661 19.8828 23 16.1758 23 11.8438C23 6.42578 18.4637 2.3125 12.871 2.3125ZM6.91935 15.7852C6.86694 15.8242 6.87903 15.9141 6.94758 15.9883C7.0121 16.0508 7.10484 16.0781 7.15726 16.0273C7.20968 15.9883 7.19758 15.8984 7.12903 15.8242C7.06452 15.7617 6.97177 15.7344 6.91935 15.7852ZM6.48387 15.4688C6.45565 15.5195 6.49597 15.582 6.57661 15.6211C6.64113 15.6602 6.72177 15.6484 6.75 15.5938C6.77823 15.543 6.7379 15.4805 6.65726 15.4414C6.57661 15.418 6.5121 15.4297 6.48387 15.4688ZM7.79032 16.8594C7.72581 16.9102 7.75 17.0273 7.84274 17.1016C7.93548 17.1914 8.05242 17.2031 8.10484 17.1406C8.15726 17.0898 8.13306 16.9727 8.05242 16.8984C7.96371 16.8086 7.84274 16.7969 7.79032 16.8594ZM7.33065 16.2852C7.26613 16.3242 7.26613 16.4258 7.33065 16.5156C7.39516 16.6055 7.50403 16.6445 7.55645 16.6055C7.62097 16.5547 7.62097 16.4531 7.55645 16.3633C7.5 16.2734 7.39516 16.2344 7.33065 16.2852Z" fill="#FFC600"/>
</g>
<defs>
<filter id="filter0_d" x="-2" y="0" width="27" height="25" filterUnits="userSpaceOnUse" color-interpolation-filters="sRGB">
<feFlood flood-opacity="0" result="BackgroundImageFix"/>
<feColorMatrix in="SourceAlpha" type="matrix" values="0 0 0 0 0 0 0 0 0 0 0 0 0 0 0 0 0 0 127 0"/>
<feOffset dx="-3" dy="1"/>
<feColorMatrix type="matrix" values="0 0 0 0 0.0313726 0 0 0 0 0.0627451 0 0 0 0 0.0901961 0 0 0 1 0"/>
<feBlend mode="normal" in2="BackgroundImageFix" result="effect1_dropShadow"/>
<feBlend mode="normal" in="SourceGraphic" in2="effect1_dropShadow" result="shape"/>
</filter>
</defs>
</svg>
