<svg width="19" height="16" viewBox="0 0 19 16" fill="none" xmlns="http://www.w3.org/2000/svg">
<g filter="url(#filter0_d)">
<path d="M5.46148 2.57185V1.28613H10.3846V2.57185H11.6153V1.28613H16.5384V2.57185H17.7692V8.57185H16.5384V9.85756H15.3076V11.1433H14.0769V12.429H12.8461V13.7147H9.15379V12.429H7.92302V11.1433H6.69225V9.85756H5.46148V8.57185H4.23071V2.57185H5.46148Z" fill="#FF628C"/>
<path fill-rule="evenodd" clip-rule="evenodd" d="M6.69231 0H9.15385V1.2857H10.3846V2.57141H9.15383V1.28571H6.69232V2.57141H5.46155V1.2857H6.69231V0ZM4.23075 2.57145H5.46152V3.85716H4.23077V7.28572H3V3.85714H4.23075V2.57145ZM5.46152 7.28574H4.23075V8.57145H5.46152V7.28574ZM16.5385 2.57145H17.7692V3.85714H19V7.28572H17.7692V3.85716H16.5385V2.57145ZM6.6923 3.85714H5.46155V6.42857H6.69232V5.14286H7.92307V3.85714H6.69232H6.6923ZM15.3077 1.2857H16.5384V2.57141H15.3077V1.28571H12.8462V2.57141H11.6154V1.2857H12.8462V0H15.3077V1.2857ZM5.46155 8.57143H6.69232V9.85715H5.46155V8.57143ZM7.92307 9.85716H6.6923V11.1429H7.92307L7.92307 12.4286H9.15383L9.15383 13.7143H10.3846V12.4285H9.15383L9.15383 11.1429H7.92307L7.92307 9.85716ZM12.8461 12.4285H11.6154V13.7143H12.8462V12.4286H14.0769V11.1429H12.8461V12.4285ZM11.6154 13.7143H10.3846V15H11.6154V13.7143ZM10.3846 2.57145H11.6154V3.85716H10.3846V2.57145ZM14.0769 9.85716H15.3077V11.1429H14.0769V9.85716ZM17.7692 8.57145H16.5385V9.85715H15.3077V8.57143H16.5384V7.28574H17.7692V8.57145Z" fill="white"/>
<rect x="10.3845" y="11.1426" width="1.23077" height="2.57143" fill="#DB597C"/>
<rect x="11.6155" y="8.57129" width="1.23077" height="2.57143" fill="#DB597C"/>
<rect x="14.0769" y="6" width="1.23077" height="2.57143" fill="#DB597C"/>
<rect x="11.6155" y="11.1426" width="1.23077" height="1.28571" fill="#DB597C"/>
<rect x="12.8462" y="9.85742" width="1.23077" height="1.28571" fill="#DB597C"/>
<rect x="15.3076" y="7.28613" width="1.23077" height="1.28571" fill="#DB597C"/>
<rect x="16.5383" y="3.85742" width="1.23077" height="2.14286" fill="#DB597C"/>
<rect x="12.8462" y="8.57129" width="2.46154" height="1.28571" fill="#DB597C"/>
<rect x="15.3076" y="6" width="2.46154" height="1.28571" fill="#DB597C"/>
</g>
<defs>
<filter id="filter0_d" x="0" y="0" width="19" height="16" filterUnits="userSpaceOnUse" color-interpolation-filters="sRGB">
<feFlood flood-opacity="0" result="BackgroundImageFix"/>
<feColorMatrix in="SourceAlpha" type="matrix" values="0 0 0 0 0 0 0 0 0 0 0 0 0 0 0 0 0 0 127 0"/>
<feOffset dx="-3" dy="1"/>
<feColorMatrix type="matrix" values="0 0 0 0 0.0313726 0 0 0 0 0.0627451 0 0 0 0 0.0901961 0 0 0 1 0"/>
<feBlend mode="normal" in2="BackgroundImageFix" result="effect1_dropShadow"/>
<feBlend mode="normal" in="SourceGraphic" in2="effect1_dropShadow" result="shape"/>
</filter>
</defs>
</svg>
