<svg width="24" height="22" viewBox="0 0 24 22" fill="none" xmlns="http://www.w3.org/2000/svg">
<path fill-rule="evenodd" clip-rule="evenodd" d="M5.53841 0H9.23072V1.88572H5.53854V3.77143H3.69238V1.88571H5.53841V0ZM9.23072 1.88572L11.0769 1.88571V3.77143H9.23071L9.23072 1.88572ZM1.84619 3.77141H3.69234V5.65713H1.84619V3.77141ZM1.84615 5.65718H0V10.6858H1.84615V5.65718ZM3.69234 10.6857H1.84619V12.5714H3.69234V10.6857ZM20.3077 3.77141H22.1538V5.65713H20.3077V3.77141ZM5.53833 5.65718H3.69238V9.42861H5.53854V7.54289H7.38448V5.65718H5.53854H5.53833ZM18.4616 1.88572L20.3076 1.88571V3.77143H18.4615V1.88571L14.7693 1.88572V0H18.4616V1.88572ZM3.69238 12.5714H5.53854V14.4571H7.38448V16.3429H5.53833V14.4572H3.69238V12.5714ZM7.38452 16.3429H9.23068V18.2286H7.38452V16.3429ZM11.0769 18.2286H9.23071V20.1143H11.0769V18.2286ZM14.7692 18.2286H12.9231V20.1143H14.7692V18.2286ZM12.9231 1.88571H14.7692V3.77143H12.9231V1.88571ZM12.9231 20.1143H11.0769V22H12.9231V20.1143ZM11.0769 3.77141H12.9231V5.65713H11.0769V3.77141ZM16.6154 16.3429H14.7693V18.2286H16.6154V16.3429ZM16.6155 14.4571H18.4616V16.3429H16.6155V14.4571ZM20.3078 12.5714H18.4617V14.4572H20.3078V12.5714ZM20.3076 10.6857H22.1538V12.5714H20.3076V10.6857ZM24 5.65718H22.1538V10.6858H24V5.65718Z" fill="#366C94"/>
</svg>
