<svg width="27" height="23" viewBox="0 0 27 23" fill="none" xmlns="http://www.w3.org/2000/svg">
<g filter="url(#filter0_d)">
<path d="M6.69235 3.77146V1.88574H14.077V3.77146H15.9231V1.88574H23.3077V3.77146H25.1539V12.5715H23.3077V14.4572H21.4616V16.3429H19.6154V18.2286H17.7693V20.1143H12.2308V18.2286H10.3847V16.3429H8.5385V14.4572H6.69235V12.5715H4.84619V3.77146H6.69235Z" fill="#FF628C"/>
<path fill-rule="evenodd" clip-rule="evenodd" d="M8.53846 0H12.2308V1.88571H8.53846L8.53846 3.7714H6.69231V1.88569H8.53846L8.53846 0ZM4.84615 3.77147H6.6923V5.65718H4.84615V10.6857H3V5.65715H4.84615V3.77147ZM6.6923 10.6857H4.84615V12.5715H6.6923V10.6857ZM23.3077 3.77147H25.1538V5.65715H27V10.6857H25.1538V5.65718H23.3077V3.77147ZM8.53845 5.65715H6.69231V9.42858H8.53846V7.54287H10.3846V5.65715H8.53846H8.53845ZM21.4615 1.88569H23.3077V3.7714H21.4615L21.4615 1.88571H17.7692L17.7692 3.7714H15.9231V1.88569H17.7692L17.7692 0H21.4615L21.4615 1.88569ZM6.69231 12.5714H8.53846V14.4571H6.69231V12.5714ZM10.3846 14.4572H8.53845V16.3429H10.3846V14.4572ZM10.3846 16.3428H12.2308V18.2286H10.3846V16.3428ZM14.0769 18.2285H12.2308V20.1142H14.0769V18.2285ZM12.2308 1.88569H14.0769V3.7714H12.2308V1.88569ZM17.7692 18.2285H15.9231V20.1142H17.7692L17.7692 18.2286H19.6154V16.3428H17.7692L17.7692 18.2285ZM15.9231 20.1143H14.0769V22H15.9231V20.1143ZM14.0769 3.77147H15.9231V5.65718H14.0769V3.77147ZM19.6154 14.4572H21.4615V16.3429H19.6154V14.4572ZM23.3077 12.5714H21.4615V14.4571H23.3077V12.5715H25.1538V10.6857H23.3077V12.5714Z" fill="white"/>
<rect x="14.0769" y="16.3428" width="1.84615" height="3.77143" fill="#DB597C"/>
<rect x="15.9231" y="12.5713" width="1.84615" height="3.77143" fill="#DB597C"/>
<rect x="19.6154" y="8.7998" width="1.84615" height="3.77143" fill="#DB597C"/>
<rect x="15.9231" y="16.3428" width="1.84615" height="1.88571" fill="#DB597C"/>
<rect x="17.7693" y="14.457" width="1.84615" height="1.88571" fill="#DB597C"/>
<rect x="21.4615" y="10.6855" width="1.84615" height="1.88571" fill="#DB597C"/>
<rect x="23.3077" y="5.65723" width="1.84615" height="3.14286" fill="#DB597C"/>
<rect x="17.7693" y="12.5713" width="3.69231" height="1.88571" fill="#DB597C"/>
<rect x="21.4615" y="8.7998" width="3.69231" height="1.88571" fill="#DB597C"/>
</g>
<defs>
<filter id="filter0_d" x="0" y="0" width="27" height="23" filterUnits="userSpaceOnUse" color-interpolation-filters="sRGB">
<feFlood flood-opacity="0" result="BackgroundImageFix"/>
<feColorMatrix in="SourceAlpha" type="matrix" values="0 0 0 0 0 0 0 0 0 0 0 0 0 0 0 0 0 0 127 0"/>
<feOffset dx="-3" dy="1"/>
<feColorMatrix type="matrix" values="0 0 0 0 0.0313726 0 0 0 0 0.0627451 0 0 0 0 0.0901961 0 0 0 1 0"/>
<feBlend mode="normal" in2="BackgroundImageFix" result="effect1_dropShadow"/>
<feBlend mode="normal" in="SourceGraphic" in2="effect1_dropShadow" result="shape"/>
</filter>
</defs>
</svg>
