<svg width="16" height="15" viewBox="0 0 16 15" fill="none" xmlns="http://www.w3.org/2000/svg">
<path d="M2.46148 2.57185V1.28613H7.38456V2.57185H8.61533V1.28613H13.5384V2.57185H14.7692V8.57185H13.5384V9.85756H12.3076V11.1433H11.0769V12.429H9.8461V13.7147H6.15379V12.429H4.92302V11.1433H3.69225V9.85756H2.46148V8.57185H1.23071V2.57185H2.46148Z" fill="#FF628C"/>
<path fill-rule="evenodd" clip-rule="evenodd" d="M3.69231 0H6.15385V1.2857H7.3846V2.57141H6.15383V1.28571H3.69232V2.57141H2.46155V1.2857H3.69231V0ZM1.23075 2.57145H2.46152V3.85716H1.23077V7.28572H0V3.85714H1.23075V2.57145ZM2.46152 7.28574H1.23075V8.57145H2.46152V7.28574ZM13.5385 2.57145H14.7692V3.85714H16V7.28572H14.7692V3.85716H13.5385V2.57145ZM3.6923 3.85714H2.46155V6.42857H3.69232V5.14286H4.92307V3.85714H3.69232H3.6923ZM12.3077 1.2857H13.5384V2.57141H12.3077V1.28571H9.84615V2.57141H8.61538V1.2857H9.84615V0H12.3077V1.2857ZM2.46155 8.57143H3.69232V9.85715H2.46155V8.57143ZM4.92307 9.85716H3.6923V11.1429H4.92307L4.92307 12.4286H6.15383L6.15383 13.7143H7.3846V12.4285H6.15383L6.15383 11.1429H4.92307L4.92307 9.85716ZM9.84613 12.4285H8.61538V13.7143H9.84615V12.4286H11.0769V11.1429H9.84613V12.4285ZM8.61539 13.7143H7.38462V15H8.61539V13.7143ZM7.38462 2.57145H8.61539V3.85716H7.38462V2.57145ZM11.0769 9.85716H12.3077V11.1429H11.0769V9.85716ZM14.7692 8.57145H13.5385V9.85715H12.3077V8.57143H13.5384V7.28574H14.7692V8.57145Z" fill="white"/>
<rect x="7.38452" y="11.1426" width="1.23077" height="2.57143" fill="#DB597C"/>
<rect x="8.61548" y="8.57129" width="1.23077" height="2.57143" fill="#DB597C"/>
<rect x="11.0769" y="6" width="1.23077" height="2.57143" fill="#DB597C"/>
<rect x="8.61548" y="11.1426" width="1.23077" height="1.28571" fill="#DB597C"/>
<rect x="9.84619" y="9.85742" width="1.23077" height="1.28571" fill="#DB597C"/>
<rect x="12.3076" y="7.28613" width="1.23077" height="1.28571" fill="#DB597C"/>
<rect x="13.5383" y="3.85742" width="1.23077" height="2.14286" fill="#DB597C"/>
<rect x="9.84619" y="8.57129" width="2.46154" height="1.28571" fill="#DB597C"/>
<rect x="12.3076" y="6" width="2.46154" height="1.28571" fill="#DB597C"/>
</svg>
