<svg width="16" height="15" viewBox="0 0 16 15" fill="none" xmlns="http://www.w3.org/2000/svg">
<path fill-rule="evenodd" clip-rule="evenodd" d="M3.69226 0H6.15379V1.28572H3.69226V0ZM2.46159 1.28572H3.69236V2.57144H2.46159V1.28572ZM1.23079 2.57141H2.46156V3.85713H1.23079V2.57141ZM1.23077 3.85717H0V7.28574H1.23077V3.85717ZM2.46156 7.28569H1.23079V8.5714H2.46156V7.28569ZM13.5384 2.57141H14.7692V3.85713H13.5384V2.57141ZM3.69222 3.85717H2.46159V6.4286H3.69236V5.14288H4.92299V3.85717H3.69236H3.69222ZM12.3076 1.28572H13.5384V2.57144H12.3076V1.28572ZM9.84619 0H12.3077V1.28572H9.84619V0ZM2.46159 8.57144H3.69236V9.85714H4.92299V11.1429H3.69222V9.85716H2.46159V8.57144ZM4.92301 11.1429H6.15378V12.4286H4.92301V11.1429ZM7.38457 12.4286H6.15381V13.7143H7.38457V12.4286ZM6.15381 1.28572H7.38457V2.57144H6.15381V1.28572ZM9.84616 12.4286H8.61539V13.7143H9.84616V12.4286ZM8.61539 1.28572H9.84616V2.57144H8.61539V1.28572ZM8.61537 13.7143H7.3846V15H8.61537V13.7143ZM7.3846 2.57141H8.61537V3.85713H7.3846V2.57141ZM11.077 11.1429H9.84619V12.4286H11.077V11.1429ZM11.077 9.85714H12.3077V11.1429H11.077V9.85714ZM13.5385 8.57144H12.3078V9.85716H13.5385V8.57144ZM13.5384 7.28569H14.7692V8.5714H13.5384V7.28569ZM16 3.85717H14.7692V7.28574H16V3.85717Z" fill="#366C94"/>
</svg>
