<svg width="24" height="22" viewBox="0 0 24 22" fill="none" xmlns="http://www.w3.org/2000/svg">
<path d="M3.69235 3.77146V1.88574H11.077V3.77146H12.9231V1.88574H20.3077V3.77146H22.1539V12.5715H20.3077V14.4572H18.4616V16.3429H16.6154V18.2286H14.7693V20.1143H9.23081V18.2286H7.38465V16.3429H5.5385V14.4572H3.69235V12.5715H1.84619V3.77146H3.69235Z" fill="#FF628C"/>
<path fill-rule="evenodd" clip-rule="evenodd" d="M5.53846 0H9.23077V1.88571H5.53846L5.53846 3.7714H3.69231V1.88569H5.53846L5.53846 0ZM1.84615 3.77147H3.6923V5.65718H1.84615V10.6857H0V5.65715H1.84615V3.77147ZM3.6923 10.6857H1.84615V12.5715H3.6923V10.6857ZM20.3077 3.77147H22.1538V5.65715H24V10.6857H22.1538V5.65718H20.3077V3.77147ZM5.53845 5.65715H3.69231V9.42858H5.53846V7.54287H7.38461V5.65715H5.53846H5.53845ZM18.4615 1.88569H20.3077V3.7714H18.4615L18.4615 1.88571H14.7692L14.7692 3.7714H12.9231V1.88569H14.7692L14.7692 0H18.4615L18.4615 1.88569ZM3.69231 12.5714H5.53846V14.4571H3.69231V12.5714ZM7.38461 14.4572H5.53845V16.3429H7.38461V14.4572ZM7.38461 16.3428H9.23077V18.2286H7.38461V16.3428ZM11.0769 18.2285H9.23077V20.1142H11.0769V18.2285ZM9.23077 1.88569H11.0769V3.7714H9.23077V1.88569ZM14.7692 18.2285H12.9231V20.1142H14.7692L14.7692 18.2286H16.6154V16.3428H14.7692L14.7692 18.2285ZM12.9231 20.1143H11.0769V22H12.9231V20.1143ZM11.0769 3.77147H12.9231V5.65718H11.0769V3.77147ZM16.6154 14.4572H18.4615V16.3429H16.6154V14.4572ZM20.3077 12.5714H18.4615V14.4571H20.3077V12.5715H22.1538V10.6857H20.3077V12.5714Z" fill="white"/>
<rect x="11.0769" y="16.3428" width="1.84615" height="3.77143" fill="#DB597C"/>
<rect x="12.9231" y="12.5713" width="1.84615" height="3.77143" fill="#DB597C"/>
<rect x="16.6154" y="8.7998" width="1.84615" height="3.77143" fill="#DB597C"/>
<rect x="12.9231" y="16.3428" width="1.84615" height="1.88571" fill="#DB597C"/>
<rect x="14.7693" y="14.457" width="1.84615" height="1.88571" fill="#DB597C"/>
<rect x="18.4615" y="10.6855" width="1.84615" height="1.88571" fill="#DB597C"/>
<rect x="20.3077" y="5.65723" width="1.84615" height="3.14286" fill="#DB597C"/>
<rect x="14.7693" y="12.5713" width="3.69231" height="1.88571" fill="#DB597C"/>
<rect x="18.4615" y="8.7998" width="3.69231" height="1.88571" fill="#DB597C"/>
</svg>
