<svg width="24" height="24" viewBox="0 0 24 24" fill="none" xmlns="http://www.w3.org/2000/svg">
<g filter="url(#filter0_d)">
<g clip-path="url(#clip0)">
<path d="M6.91719 19.4996H3.28906V7.81602H6.91719V19.4996ZM5.10117 6.22227C3.94102 6.22227 3 5.26133 3 4.10117C3 3.54391 3.22137 3.00947 3.61542 2.61542C4.00947 2.22137 4.54391 2 5.10117 2C5.65844 2 6.19288 2.22137 6.58692 2.61542C6.98097 3.00947 7.20234 3.54391 7.20234 4.10117C7.20234 5.26133 6.26094 6.22227 5.10117 6.22227ZM20.4961 19.4996H16.8758V13.8121C16.8758 12.4566 16.8484 10.7184 14.9895 10.7184C13.1031 10.7184 12.8141 12.191 12.8141 13.7145V19.4996H9.18984V7.81602H12.6695V9.40977H12.7203C13.2047 8.4918 14.3879 7.52305 16.1531 7.52305C19.825 7.52305 20.5 9.94102 20.5 13.0816V19.4996H20.4961Z" fill="#FFC600"/>
</g>
</g>
<defs>
<filter id="filter0_d" x="-3" y="0" width="27" height="25" filterUnits="userSpaceOnUse" color-interpolation-filters="sRGB">
<feFlood flood-opacity="0" result="BackgroundImageFix"/>
<feColorMatrix in="SourceAlpha" type="matrix" values="0 0 0 0 0 0 0 0 0 0 0 0 0 0 0 0 0 0 127 0"/>
<feOffset dx="-3" dy="1"/>
<feColorMatrix type="matrix" values="0 0 0 0 0.0313726 0 0 0 0 0.0627451 0 0 0 0 0.0901961 0 0 0 1 0"/>
<feBlend mode="normal" in2="BackgroundImageFix" result="effect1_dropShadow"/>
<feBlend mode="normal" in="SourceGraphic" in2="effect1_dropShadow" result="shape"/>
</filter>
<clipPath id="clip0">
<rect width="17.5" height="20" fill="white" transform="translate(3 2)"/>
</clipPath>
</defs>
</svg>
