<svg width="35" height="35" viewBox="0 0 35 35" fill="none" xmlns="http://www.w3.org/2000/svg">
<path d="M26.95 6.2998V2.7998H17.5V32.1998L26.95 28.5248L30.45 24.8498V6.2998H26.95Z" fill="#FFC600"/>
<path d="M8.04993 6.2998V2.7998H17.4999V32.1998L8.04993 28.5248L4.54993 24.8498V6.2998H8.04993Z" fill="#FFA82A"/>
<path fill-rule="evenodd" clip-rule="evenodd" d="M25.0713 10.1289H15.5525V12.7016H18.3824V23.6352H13.2371V25.4361H22.4986V23.6353H23.5277V12.7016H25.0713V10.1289ZM11.6935 21.8343H15.5525V23.6352H11.6935V21.8343Z" fill="#FFA82A"/>
<path fill-rule="evenodd" clip-rule="evenodd" d="M23.5277 9.09961H14.0089V11.6723H16.8388V22.6059H11.6935V24.4068H20.955V22.606H21.9841V11.6723H23.5277V9.09961ZM10.1499 20.805H14.0089V22.6059H10.1499V20.805Z" fill="white"/>
</svg>
