<svg width="52" height="52" viewBox="0 0 52 52" fill="none" xmlns="http://www.w3.org/2000/svg">
<path d="M40.04 9.36016V4.16016H26V47.8402L40.04 42.3802L45.24 36.9202V9.36016H40.04Z" fill="#FFC600"/>
<path d="M11.96 9.36016V4.16016H26V47.8402L11.96 42.3802L6.76001 36.9202V9.36016H11.96Z" fill="#FFA82A"/>
<path fill-rule="evenodd" clip-rule="evenodd" d="M37.2488 15.0498H23.1066V18.872H37.2488V15.0498ZM27.311 35.1165L19.6666 35.1165V37.792H33.4266V35.1165L34.9555 35.1165V18.872H27.311V35.1165ZM17.3733 32.4409H23.1066V35.1165H17.3733V32.4409Z" fill="#FFA82A"/>
<path fill-rule="evenodd" clip-rule="evenodd" d="M34.9555 13.5205H20.8133V17.3427H34.9555V13.5205ZM25.0177 33.5872L20.8133 33.5872V30.9116H15.08V33.5872H17.3733V36.2627H31.1333V33.5872L32.6622 33.5872V17.3427H25.0177V33.5872Z" fill="white"/>
</svg>
