<svg width="16" height="17" viewBox="0 0 16 17" fill="none" xmlns="http://www.w3.org/2000/svg">
<path fill-rule="evenodd" clip-rule="evenodd" d="M11.4286 0H13.7143V0.566691H13.7144H15.4287L15.4287 2.26666H16V4.53333H15.4287V6.23332L15.4287 6.23336H13.7143V6.80001H11.4286V6.23336H9.7144V6.23332V4.53333H9.14294V4.53332H8.00002V3.39999H9.14294V2.26666H9.7144V0.566691H11.4286V0ZM13.7144 5.10005H11.4287V4.53332H10.8572V2.26669H11.4287V1.70005H13.7144V2.26669H14.2858V4.53332H13.7144V5.10005ZM11.4286 10.2H13.7143V10.7666H13.7144H15.4287L15.4287 12.4666H16V14.7333H15.4287V14.7333L15.4287 16.4333H13.7144L13.7143 16.4333V17H11.4286V16.4333H9.7144V14.7333V14.7333H9.14294V13.6H8.00002V12.4667H9.14294V12.4666H9.7144V10.7666H11.4286V10.2ZM13.7144 15.2999H11.4287V14.7333H10.8572V12.4666H11.4287V11.8999H13.7144V12.4666H14.2858V14.7333H13.7144V15.2999ZM4.57137 5.10001H2.28565V5.66669H0.571452V7.36665H0V9.63332H0.571452V9.63334V11.3333V11.3334H2.28564V11.9H4.57137V11.3334H6.28575L6.28576 11.3333L6.85711 11.3333V12.4666H9.14283V11.3333H8.00009V10.2H6.28576V9.63334V9.63332H6.85723V7.36665H6.28576L6.28576 6.80003H8.00009V5.66669H6.28575V5.66669H4.57147H4.57137V5.10001ZM2.28574 10.2H4.57147V9.63334H5.14297V7.36669H4.57147V6.8H2.28574V7.36669H1.71439V9.63334H2.28574V10.2ZM6.85711 4.53334H9.14283V5.66667H6.85711V4.53334Z" fill="white"/>
<path fill-rule="evenodd" clip-rule="evenodd" d="M2.28568 9.63341V10.7667H4.5714V9.63341H5.71439V7.36674H4.5714V6.2334H2.28568L2.28568 7.36674H1.14294V9.63341H2.28568Z" fill="#0088FF"/>
<path fill-rule="evenodd" clip-rule="evenodd" d="M11.4285 4.53378L11.4285 5.66712H13.7142V4.53378H14.8571V2.26711H13.7142V1.13379L11.4285 1.13379V2.26711H10.2856V4.53378H11.4285Z" fill="#0088FF"/>
<path fill-rule="evenodd" clip-rule="evenodd" d="M11.4285 14.733V15.8663H13.7142V14.733H14.8571V12.4664H13.7142V11.333L11.4285 11.333L11.4285 12.4664H10.2856V14.733H11.4285Z" fill="#0088FF"/>
<rect x="11.4286" y="12.4668" width="1.14286" height="1.13333" fill="white"/>
<rect x="2.28564" y="7.36621" width="1.14286" height="1.13333" fill="white"/>
<rect x="11.4286" y="2.2666" width="1.14286" height="1.13333" fill="white"/>
</svg>
