<svg width="24" height="26" viewBox="0 0 24 26" fill="none" xmlns="http://www.w3.org/2000/svg">
<path fill-rule="evenodd" clip-rule="evenodd" d="M17 0H21V0.666707H23.4286V3H24V7H23.4286V9.33337H21V10H17V9.33337H14.8572V7H14H13V8H12V10H9.42861V11H10V15H12V17H13V18H14H14.8572V15.6667H17V15H21V15.6667H23.4286V18H24V22H23.4286V24.3334H21V25H17V24.3334H14.8572V22H14V20H13V19H11V17H9.42861V17.3334H7V18H3V17.3334H0.857178V15H0V11H0.857178V8.66671H3V8H7V8.66671H9V8H11V6H13V5H14V3H14.8572V0.666707H17V0ZM9 8.99996V9H7V8.99996H9ZM16 7H17V8H21V7H22V3H21V2H17V3H16V7ZM17 1V0.999959H15V1H17ZM23 0.999959V1H21V0.999959H23ZM2 11V15H3V16H7V15H8V11H7V10H3V11H2ZM3 9V8.99996H1V9H3ZM17 22H16V18H17V17H21V18H22V22H21V23H17V22ZM17 16V16H15V16H17ZM23 16V16H21V16H23Z" fill="#366C94"/>
</svg>
