<svg width="19" height="18" viewBox="0 0 19 18" fill="none" xmlns="http://www.w3.org/2000/svg">
<g filter="url(#filter0_d)">
<path fill-rule="evenodd" clip-rule="evenodd" d="M14.4286 0H16.7143V0.566691H16.7144H18.4287L18.4287 2.26666H19V4.53333H18.4287V6.23332L18.4287 6.23336H16.7143V6.80001H14.4286V6.23336H12.7144V6.23332V4.53333H12.1429V4.53332H11V3.39999H12.1429V2.26666H12.7144V0.566691H14.4286V0ZM16.7144 5.10005H14.4287V4.53332H13.8572V2.26669H14.4287V1.70005H16.7144V2.26669H17.2858V4.53332H16.7144V5.10005ZM14.4286 10.2H16.7143V10.7666H16.7144H18.4287L18.4287 12.4666H19V14.7333H18.4287V14.7333L18.4287 16.4333H16.7144L16.7143 16.4333V17H14.4286V16.4333H12.7144V14.7333V14.7333H12.1429V13.6H11V12.4667H12.1429V12.4666H12.7144V10.7666H14.4286V10.2ZM16.7144 15.2999H14.4287V14.7333H13.8572V12.4666H14.4287V11.8999H16.7144V12.4666H17.2858V14.7333H16.7144V15.2999ZM7.57137 5.10001H5.28565V5.66669H3.57145V7.36665H3V9.63332H3.57145V9.63334V11.3333V11.3334H5.28564V11.9H7.57137V11.3334H9.28575L9.28576 11.3333L9.85711 11.3333V12.4666H12.1428V11.3333H11.0001V10.2H9.28576V9.63334V9.63332H9.85723V7.36665H9.28576L9.28576 6.80003H11.0001V5.66669H9.28575V5.66669H7.57147H7.57137V5.10001ZM5.28574 10.2H7.57147V9.63334H8.14297V7.36669H7.57147V6.8H5.28574V7.36669H4.71439V9.63334H5.28574V10.2ZM9.85711 4.53334H12.1428V5.66667H9.85711V4.53334Z" fill="white"/>
<path fill-rule="evenodd" clip-rule="evenodd" d="M5.28568 9.63341V10.7667H7.5714V9.63341H8.71439V7.36674H7.5714V6.2334H5.28568L5.28568 7.36674H4.14294V9.63341H5.28568Z" fill="#0088FF"/>
<path fill-rule="evenodd" clip-rule="evenodd" d="M14.4285 4.53378L14.4285 5.66712H16.7142V4.53378H17.8571V2.26711H16.7142V1.13379L14.4285 1.13379V2.26711H13.2856V4.53378H14.4285Z" fill="#0088FF"/>
<path fill-rule="evenodd" clip-rule="evenodd" d="M14.4285 14.733V15.8663H16.7142V14.733H17.8571V12.4664H16.7142V11.333L14.4285 11.333L14.4285 12.4664H13.2856V14.733H14.4285Z" fill="#0088FF"/>
<rect x="14.4286" y="12.4668" width="1.14286" height="1.13333" fill="white"/>
<rect x="5.28564" y="7.36621" width="1.14286" height="1.13333" fill="white"/>
<rect x="14.4286" y="2.2666" width="1.14286" height="1.13333" fill="white"/>
</g>
<defs>
<filter id="filter0_d" x="0" y="0" width="19" height="18" filterUnits="userSpaceOnUse" color-interpolation-filters="sRGB">
<feFlood flood-opacity="0" result="BackgroundImageFix"/>
<feColorMatrix in="SourceAlpha" type="matrix" values="0 0 0 0 0 0 0 0 0 0 0 0 0 0 0 0 0 0 127 0"/>
<feOffset dx="-3" dy="1"/>
<feColorMatrix type="matrix" values="0 0 0 0 0.0313726 0 0 0 0 0.0627451 0 0 0 0 0.0901961 0 0 0 1 0"/>
<feBlend mode="normal" in2="BackgroundImageFix" result="effect1_dropShadow"/>
<feBlend mode="normal" in="SourceGraphic" in2="effect1_dropShadow" result="shape"/>
</filter>
</defs>
</svg>
