<svg width="24" height="26" viewBox="0 0 24 26" fill="none" xmlns="http://www.w3.org/2000/svg">
<path fill-rule="evenodd" clip-rule="evenodd" d="M17.1429 0H20.5715V0.866703H20.5716H23.143V3.46666H24V6.93333H23.143V9.53337H20.5715V10.4H17.1429V9.53337H14.5716V9.53333V6.93333H13.7144V6.9333H12V5.19997H13.7144V3.46666H14.5716V0.866703H17.1429V0ZM20.5716 7.80006H17.143V6.93333H16.2858V3.4667H17.143V2.60006H20.5716V3.4667H21.4286V6.93333H20.5716V7.80006ZM17.1429 15.6H20.5715V16.4666H20.5716H23.143V19.0666H24V22.5333H23.143V25.1333L20.5716 25.1333H20.5714V26H17.1429V25.1333L14.5716 25.1333V22.5333V22.5333H13.7144V20.8001H12V19.0667H13.7144V19.0666H14.5716V16.4666H17.1429V15.6ZM20.5716 23.3999H17.143V22.5333H16.2858V19.0666H17.143V18.1999H20.5716V19.0666H21.4286V22.5333H20.5716V23.3999ZM6.85705 7.80003H3.42847V8.66671H0.857178V11.2667H0V14.7333H0.857178V17.3333V17.3334H3.42847V18.2H6.85705V17.3334H9.42863V17.3333H10.2857V19.0667H13.7142V17.3333H12.0001V15.6H9.42863V14.7333H10.2858V11.2667H9.42863V10.4H12.0001V8.6667H8.57155V8.66671H6.85719H6.85705V7.80003ZM3.42861 15.6H6.85719V14.7333H7.71448V11.2667H6.85719V10.4H3.42861V11.2667H2.57161V14.7333H3.42861V15.6ZM10.2857 6.93335H13.7142V8.66668H10.2857V6.93335Z" fill="white"/>
<path fill-rule="evenodd" clip-rule="evenodd" d="M3.4285 14.7332L3.4285 16.4665H6.85708V14.7332H8.57152V11.2666H6.85708V9.5332L3.4285 9.5332L3.4285 11.2666H1.71436V14.7332H3.4285Z" fill="#0088FF"/>
<path fill-rule="evenodd" clip-rule="evenodd" d="M17.1428 6.93338L17.1428 8.66673H20.5714V6.93338H22.2856V3.46671H20.5714V1.7334L17.1428 1.7334L17.1428 3.46671H15.4285V6.93338H17.1428Z" fill="#0088FF"/>
<path fill-rule="evenodd" clip-rule="evenodd" d="M17.1428 22.533L17.1428 24.2663H20.5714V22.533H22.2856V19.0664H20.5714V17.333L17.1428 17.333L17.1428 19.0664H15.4285V22.533H17.1428Z" fill="#0088FF"/>
<rect x="17.1428" y="19.0664" width="1.71429" height="1.73333" fill="white"/>
<rect x="3.42847" y="11.2666" width="1.71429" height="1.73333" fill="white"/>
<rect x="17.1428" y="3.4668" width="1.71429" height="1.73333" fill="white"/>
</svg>
