<svg width="27" height="27" viewBox="0 0 27 27" fill="none" xmlns="http://www.w3.org/2000/svg">
<g filter="url(#filter0_d)">
<path fill-rule="evenodd" clip-rule="evenodd" d="M20.1429 0H23.5715V0.866703H23.5716H26.143V3.46666H27V6.93333H26.143V9.53337H23.5715V10.4H20.1429V9.53337H17.5716V9.53333V6.93333H16.7144V6.9333H15V5.19997H16.7144V3.46666H17.5716V0.866703H20.1429V0ZM23.5716 7.80006H20.143V6.93333H19.2858V3.4667H20.143V2.60006H23.5716V3.4667H24.4286V6.93333H23.5716V7.80006ZM20.1429 15.6H23.5715V16.4666H23.5716H26.143V19.0666H27V22.5333H26.143V25.1333L23.5716 25.1333H23.5714V26H20.1429V25.1333L17.5716 25.1333V22.5333V22.5333H16.7144V20.8001H15V19.0667H16.7144V19.0666H17.5716V16.4666H20.1429V15.6ZM23.5716 23.3999H20.143V22.5333H19.2858V19.0666H20.143V18.1999H23.5716V19.0666H24.4286V22.5333H23.5716V23.3999ZM9.85705 7.80003H6.42847V8.66671H3.85718V11.2667H3V14.7333H3.85718V17.3333V17.3334H6.42847V18.2H9.85705V17.3334H12.4286V17.3333H13.2857V19.0667H16.7142V17.3333H15.0001V15.6H12.4286V14.7333H13.2858V11.2667H12.4286V10.4H15.0001V8.6667H11.5715V8.66671H9.85719H9.85705V7.80003ZM6.42861 15.6H9.85719V14.7333H10.7145V11.2667H9.85719V10.4H6.42861V11.2667H5.57161V14.7333H6.42861V15.6ZM13.2857 6.93335H16.7142V8.66668H13.2857V6.93335Z" fill="white"/>
<path fill-rule="evenodd" clip-rule="evenodd" d="M6.4285 14.7332L6.4285 16.4665H9.85708V14.7332H11.5715V11.2666H9.85708V9.5332L6.4285 9.5332L6.4285 11.2666H4.71436V14.7332H6.4285Z" fill="#0088FF"/>
<path fill-rule="evenodd" clip-rule="evenodd" d="M20.1428 6.93338L20.1428 8.66673H23.5714V6.93338H25.2856V3.46671H23.5714V1.7334L20.1428 1.7334L20.1428 3.46671H18.4285V6.93338H20.1428Z" fill="#0088FF"/>
<path fill-rule="evenodd" clip-rule="evenodd" d="M20.1428 22.533L20.1428 24.2663H23.5714V22.533H25.2856V19.0664H23.5714V17.333L20.1428 17.333L20.1428 19.0664H18.4285V22.533H20.1428Z" fill="#0088FF"/>
<rect x="20.1428" y="19.0664" width="1.71429" height="1.73333" fill="white"/>
<rect x="6.42847" y="11.2666" width="1.71429" height="1.73333" fill="white"/>
<rect x="20.1428" y="3.4668" width="1.71429" height="1.73333" fill="white"/>
</g>
<defs>
<filter id="filter0_d" x="0" y="0" width="27" height="27" filterUnits="userSpaceOnUse" color-interpolation-filters="sRGB">
<feFlood flood-opacity="0" result="BackgroundImageFix"/>
<feColorMatrix in="SourceAlpha" type="matrix" values="0 0 0 0 0 0 0 0 0 0 0 0 0 0 0 0 0 0 127 0"/>
<feOffset dx="-3" dy="1"/>
<feColorMatrix type="matrix" values="0 0 0 0 0.0313726 0 0 0 0 0.0627451 0 0 0 0 0.0901961 0 0 0 1 0"/>
<feBlend mode="normal" in2="BackgroundImageFix" result="effect1_dropShadow"/>
<feBlend mode="normal" in="SourceGraphic" in2="effect1_dropShadow" result="shape"/>
</filter>
</defs>
</svg>
