<svg width="16" height="17" viewBox="0 0 16 17" fill="none" xmlns="http://www.w3.org/2000/svg">
<path fill-rule="evenodd" clip-rule="evenodd" d="M11.3334 0H14.0001V0.435819H15.6191V1.96207H16.0001V4.57746H15.6191V6.10249H14.0001V6.53822H11.3334V6.10249H9.90483V4.57746H9.33337V4.57581H8.66671V5.22983H7.33337V3.92213H8.66671V3.26845H9.33337V1.96207H9.90483V0.435819H11.3334V0ZM10.6667 4.57685V1.96207H10V1.96137H11.3334V1.30769H14.0001V1.96137H15.3334V1.96207H14.6667V4.57685H14.0001V5.23053H11.3334V4.57685H10.6667ZM2.00001 5.23053H4.66669V5.66635H6.00003V5.23053H8.00004V6.53822H6.28576V7.1926H6.6667V9.8071H8.00004V11.1148H6.28576V11.333H4.66669V11.7687H2.00001V11.333H0.571454V9.80799H0V7.1926H0.571454V5.66635H2.00001V5.23053ZM1.33334 9.80737V7.1926H0.66667V7.1919H2.00001V6.53822H4.66669V7.1919H6.00003V7.1926H5.33336V9.80737H4.66669V10.4611H2.00001V9.80737H1.33334ZM14.0001 9.80737H11.3334V10.2432H9.90483V11.7694H9.33337V11.7695H8.66671V11.1155H7.33337V12.4232H8.66671V13.0769H9.33337V14.3848H9.90483V15.9099H11.3334V16.3456H14.0001V15.9099H15.6191V14.3848H16.0001V11.7694H15.6191V10.2432H14.0001V9.80737ZM10.6667 11.7694V14.3842H11.3334V15.0379H14.0001V14.3842H14.6667V11.7694H15.3334V11.7687H14.0001V11.1151H11.3334V11.7687H10V11.7694H10.6667Z" fill="#366C94"/>
</svg>
