<svg width="25" height="24" viewBox="0 0 25 24" fill="none" xmlns="http://www.w3.org/2000/svg">
<g filter="url(#filter0_d)">
<path d="M20.9441 7.92613C20.9568 8.10379 20.9568 8.28148 20.9568 8.45914C20.9568 13.8779 16.8325 20.1216 9.29441 20.1216C6.97207 20.1216 4.81473 19.4489 3 18.2815C3.32996 18.3195 3.64719 18.3322 3.98984 18.3322C5.90605 18.3322 7.67004 17.685 9.07867 16.581C7.27664 16.5429 5.76648 15.3627 5.24617 13.7383C5.5 13.7764 5.75379 13.8018 6.02031 13.8018C6.38832 13.8018 6.75637 13.751 7.09898 13.6622C5.22082 13.2814 3.81215 11.6317 3.81215 9.63934V9.58859C4.35781 9.89316 4.99238 10.0835 5.66492 10.1089C4.56086 9.37281 3.83754 8.11648 3.83754 6.69516C3.83754 5.93375 4.04055 5.23578 4.3959 4.62664C6.41367 7.11395 9.44668 8.73828 12.8477 8.91598C12.7842 8.61141 12.7461 8.29418 12.7461 7.97691C12.7461 5.71801 14.5736 3.87793 16.8451 3.87793C18.0253 3.87793 19.0913 4.37285 19.84 5.17234C20.7664 4.99469 21.6547 4.65203 22.4416 4.1825C22.137 5.1343 21.4898 5.93379 20.6395 6.44137C21.4644 6.35258 22.2639 6.1241 22.9999 5.80687C22.4416 6.61902 21.7436 7.34234 20.9441 7.92613Z" fill="#FFC600"/>
</g>
<defs>
<filter id="filter0_d" x="-2" y="0" width="27" height="25" filterUnits="userSpaceOnUse" color-interpolation-filters="sRGB">
<feFlood flood-opacity="0" result="BackgroundImageFix"/>
<feColorMatrix in="SourceAlpha" type="matrix" values="0 0 0 0 0 0 0 0 0 0 0 0 0 0 0 0 0 0 127 0"/>
<feOffset dx="-3" dy="1"/>
<feColorMatrix type="matrix" values="0 0 0 0 0.0313726 0 0 0 0 0.0627451 0 0 0 0 0.0901961 0 0 0 1 0"/>
<feBlend mode="normal" in2="BackgroundImageFix" result="effect1_dropShadow"/>
<feBlend mode="normal" in="SourceGraphic" in2="effect1_dropShadow" result="shape"/>
</filter>
</defs>
</svg>
