<svg width="315" height="284" viewBox="0 0 315 284" fill="none" xmlns="http://www.w3.org/2000/svg">
<path fill-rule="evenodd" clip-rule="evenodd" d="M134 0V85H87V1H86V85L0 85V86L86 86V133H0V134H86V181H0V182H86V229H0V230H86V316H87V230H134V315H135V230L182 230V315H183V230H230V315H231V230H315V229H231V182H315V181H231V134H315V133H231V86L315 86V85L231 85V0H230V85H183V0H182V85H135V0H134ZM230 229V182H183V229H230ZM182 229V182L135 182V229L182 229ZM134 229V182H87V229H134ZM134 181H87V134H134V181ZM182 181L135 181V134L182 134V181ZM230 181H183V134H230V181ZM230 133V86H183V133H230ZM182 133V86H135V133L182 133ZM134 133V86H87V133H134Z" fill="url(#paint0_radial)"/>
<defs>
<radialGradient id="paint0_radial" cx="0" cy="0" r="1" gradientUnits="userSpaceOnUse" gradientTransform="translate(157.5 157.5) rotate(90) scale(157.5)">
<stop stop-color="#FFC600"/>
<stop offset="0.520833" stop-color="#366C94"/>
<stop offset="1" stop-color="#366C94" stop-opacity="0"/>
</radialGradient>
</defs>
</svg>
