<svg width="16" height="900" viewBox="0 0 16 900" fill="none" xmlns="http://www.w3.org/2000/svg">
<rect width="8" height="48" fill="#0C1924"/>
<rect y="223" width="8" height="48" fill="#0C1924"/>
<rect x="8" y="203" width="8" height="27" transform="rotate(180 8 203)" fill="#0C1924"/>
<rect x="8" y="426" width="8" height="27" transform="rotate(180 8 426)" fill="#0C1924"/>
<rect y="68" width="8" height="16" fill="#0C1924"/>
<rect y="291" width="8" height="16" fill="#0C1924"/>
<rect x="8" y="163" width="8" height="36" transform="rotate(180 8 163)" fill="#0C1924"/>
<rect x="8" y="386" width="8" height="36" transform="rotate(180 8 386)" fill="#0C1924"/>
<rect x="8" y="23" width="8" height="48" fill="#0C1924"/>
<rect x="8" y="246" width="8" height="48" fill="#0C1924"/>
<rect x="16" y="226" width="8" height="27" transform="rotate(180 16 226)" fill="#0C1924"/>
<rect x="16" y="449" width="8" height="27" transform="rotate(180 16 449)" fill="#0C1924"/>
<rect x="8" y="91" width="8" height="16" fill="#0C1924"/>
<rect x="8" y="314" width="8" height="16" fill="#0C1924"/>
<rect x="16" y="186" width="8" height="36" transform="rotate(180 16 186)" fill="#0C1924"/>
<rect x="16" y="409" width="8" height="36" transform="rotate(180 16 409)" fill="#0C1924"/>
<rect x="8" y="900" width="8" height="48" transform="rotate(-180 8 900)" fill="#0C1924"/>
<rect x="8" y="677" width="8" height="48" transform="rotate(-180 8 677)" fill="#0C1924"/>
<rect y="697" width="8" height="27" fill="#0C1924"/>
<rect y="474" width="8" height="27" fill="#0C1924"/>
<rect x="8" y="832" width="8" height="16" transform="rotate(-180 8 832)" fill="#0C1924"/>
<rect x="8" y="609" width="8" height="16" transform="rotate(-180 8 609)" fill="#0C1924"/>
<rect y="737" width="8" height="36" fill="#0C1924"/>
<rect y="514" width="8" height="36" fill="#0C1924"/>
<rect x="16" y="875" width="8" height="48" transform="rotate(-180 16 875)" fill="#0C1924"/>
<rect x="16" y="652" width="8" height="48" transform="rotate(-180 16 652)" fill="#0C1924"/>
<rect x="8" y="672" width="8" height="27" fill="#0C1924"/>
<rect x="8" y="449" width="8" height="27" fill="#0C1924"/>
<rect x="16" y="807" width="8" height="16" transform="rotate(-180 16 807)" fill="#0C1924"/>
<rect x="16" y="584" width="8" height="16" transform="rotate(-180 16 584)" fill="#0C1924"/>
<rect x="8" y="712" width="8" height="36" fill="#0C1924"/>
<rect x="8" y="489" width="8" height="36" fill="#0C1924"/>
</svg>
